<svg xmlns="http://www.w3.org/2000/svg" viewBox="0 0 100 100">
  <rect width="100" height="100" rx="22" fill="#0082C9"/>
  <!-- Folder back -->
  <path d="M15 42 Q15 36 21 36 L40 36 L46 30 L79 30 Q85 30 85 36 L85 70 Q85 76 79 76 L21 76 Q15 76 15 70 Z" fill="white" opacity="0.3"/>
  <!-- Folder front -->
  <path d="M15 46 Q15 40 21 40 L79 40 Q85 40 85 46 L85 70 Q85 76 79 76 L21 76 Q15 76 15 70 Z" fill="white"/>
  <!-- File lines -->
  <rect x="27" y="52" width="30" height="4" rx="2" fill="#0082C9" opacity="0.5"/>
  <rect x="27" y="61" width="22" height="4" rx="2" fill="#0082C9" opacity="0.4"/>
</svg>
